<mxfile host="app.diagrams.net" modified="2022-06-23T04:37:44.429Z" agent="5.0 (Windows NT 10.0; Win64; x64) AppleWebKit/537.36 (KHTML, like Gecko) Chrome/102.0.0.0 Safari/537.36" etag="QPcFEKnIq_m5dQnRPImn" version="16.6.3" type="github">
  <diagram id="mDYKbPkZ1JHOI9Wo8ffw" name="Page-1">
    <mxGraphModel dx="782" dy="411" grid="1" gridSize="10" guides="1" tooltips="1" connect="1" arrows="1" fold="1" page="1" pageScale="1" pageWidth="827" pageHeight="1169" math="0" shadow="0">
      <root>
        <mxCell id="0" />
        <mxCell id="1" parent="0" />
        <mxCell id="J87j1mYxE_HHsohZvzXR-25" value="Here services and servers can be scalled based on the number of users&lt;br&gt;Each user story is architectured on seprate server as microservice" style="whiteSpace=wrap;html=1;fillColor=#fff2cc;strokeColor=#d6b656;" vertex="1" parent="1">
          <mxGeometry x="297.5" y="90" width="205" height="60" as="geometry" />
        </mxCell>
        <mxCell id="J87j1mYxE_HHsohZvzXR-4" value="Users" style="rounded=0;whiteSpace=wrap;html=1;fillColor=#527041;strokeColor=#344729;" vertex="1" parent="1">
          <mxGeometry x="39" y="363.5" width="80" height="20" as="geometry" />
        </mxCell>
        <mxCell id="J87j1mYxE_HHsohZvzXR-10" value="&lt;b&gt;High Level Architecture Design&lt;/b&gt;" style="text;html=1;strokeColor=none;fillColor=none;align=center;verticalAlign=middle;whiteSpace=wrap;rounded=0;" vertex="1" parent="1">
          <mxGeometry x="330" y="20" width="140" height="30" as="geometry" />
        </mxCell>
        <mxCell id="J87j1mYxE_HHsohZvzXR-13" value="" style="endArrow=classic;startArrow=classic;html=1;rounded=0;" edge="1" parent="1" source="J87j1mYxE_HHsohZvzXR-34" target="J87j1mYxE_HHsohZvzXR-47">
          <mxGeometry width="50" height="50" relative="1" as="geometry">
            <mxPoint x="100" y="230" as="sourcePoint" />
            <mxPoint x="207.5" y="326.08438485804413" as="targetPoint" />
          </mxGeometry>
        </mxCell>
        <mxCell id="J87j1mYxE_HHsohZvzXR-14" value="" style="endArrow=classic;startArrow=classic;html=1;rounded=0;exitX=1;exitY=0.75;exitDx=0;exitDy=0;exitPerimeter=0;" edge="1" parent="1" source="J87j1mYxE_HHsohZvzXR-35" target="J87j1mYxE_HHsohZvzXR-47">
          <mxGeometry width="50" height="50" relative="1" as="geometry">
            <mxPoint x="100" y="270" as="sourcePoint" />
            <mxPoint x="207.5" y="335.79301075268813" as="targetPoint" />
          </mxGeometry>
        </mxCell>
        <mxCell id="J87j1mYxE_HHsohZvzXR-15" value="" style="endArrow=classic;startArrow=classic;html=1;rounded=0;exitX=1;exitY=0.5;exitDx=0;exitDy=0;exitPerimeter=0;" edge="1" parent="1" source="J87j1mYxE_HHsohZvzXR-37" target="J87j1mYxE_HHsohZvzXR-47">
          <mxGeometry width="50" height="50" relative="1" as="geometry">
            <mxPoint x="100" y="310" as="sourcePoint" />
            <mxPoint x="207.5" y="344.9327956989247" as="targetPoint" />
          </mxGeometry>
        </mxCell>
        <mxCell id="J87j1mYxE_HHsohZvzXR-34" value="" style="sketch=0;points=[[0,0,0],[0.25,0,0],[0.5,0,0],[0.75,0,0],[1,0,0],[0,1,0],[0.25,1,0],[0.5,1,0],[0.75,1,0],[1,1,0],[0,0.25,0],[0,0.5,0],[0,0.75,0],[1,0.25,0],[1,0.5,0],[1,0.75,0]];outlineConnect=0;fontColor=#232F3E;gradientColor=#4AB29A;gradientDirection=north;fillColor=#116D5B;strokeColor=#ffffff;dashed=0;verticalLabelPosition=bottom;verticalAlign=top;align=center;html=1;fontSize=12;fontStyle=0;aspect=fixed;shape=mxgraph.aws4.resourceIcon;resIcon=mxgraph.aws4.desktop_and_app_streaming;" vertex="1" parent="1">
          <mxGeometry x="60" y="210" width="38" height="38" as="geometry" />
        </mxCell>
        <mxCell id="J87j1mYxE_HHsohZvzXR-35" value="" style="sketch=0;points=[[0,0,0],[0.25,0,0],[0.5,0,0],[0.75,0,0],[1,0,0],[0,1,0],[0.25,1,0],[0.5,1,0],[0.75,1,0],[1,1,0],[0,0.25,0],[0,0.5,0],[0,0.75,0],[1,0.25,0],[1,0.5,0],[1,0.75,0]];outlineConnect=0;fontColor=#232F3E;gradientColor=#4AB29A;gradientDirection=north;fillColor=#116D5B;strokeColor=#ffffff;dashed=0;verticalLabelPosition=bottom;verticalAlign=top;align=center;html=1;fontSize=12;fontStyle=0;aspect=fixed;shape=mxgraph.aws4.resourceIcon;resIcon=mxgraph.aws4.desktop_and_app_streaming;" vertex="1" parent="1">
          <mxGeometry x="60" y="260" width="38" height="38" as="geometry" />
        </mxCell>
        <mxCell id="J87j1mYxE_HHsohZvzXR-37" value="" style="sketch=0;points=[[0,0,0],[0.25,0,0],[0.5,0,0],[0.75,0,0],[1,0,0],[0,1,0],[0.25,1,0],[0.5,1,0],[0.75,1,0],[1,1,0],[0,0.25,0],[0,0.5,0],[0,0.75,0],[1,0.25,0],[1,0.5,0],[1,0.75,0]];outlineConnect=0;fontColor=#232F3E;gradientColor=#4AB29A;gradientDirection=north;fillColor=#116D5B;strokeColor=#ffffff;dashed=0;verticalLabelPosition=bottom;verticalAlign=top;align=center;html=1;fontSize=12;fontStyle=0;aspect=fixed;shape=mxgraph.aws4.resourceIcon;resIcon=mxgraph.aws4.desktop_and_app_streaming;" vertex="1" parent="1">
          <mxGeometry x="60" y="312" width="38" height="38" as="geometry" />
        </mxCell>
        <mxCell id="J87j1mYxE_HHsohZvzXR-40" value="" style="endArrow=classic;startArrow=classic;html=1;rounded=0;" edge="1" parent="1" source="J87j1mYxE_HHsohZvzXR-43" target="J87j1mYxE_HHsohZvzXR-47">
          <mxGeometry width="50" height="50" relative="1" as="geometry">
            <mxPoint x="100" y="420" as="sourcePoint" />
            <mxPoint x="209.36" y="381.96000000000004" as="targetPoint" />
          </mxGeometry>
        </mxCell>
        <mxCell id="J87j1mYxE_HHsohZvzXR-41" value="" style="endArrow=classic;startArrow=classic;html=1;rounded=0;exitX=1;exitY=0.75;exitDx=0;exitDy=0;exitPerimeter=0;" edge="1" parent="1" source="J87j1mYxE_HHsohZvzXR-44" target="J87j1mYxE_HHsohZvzXR-47">
          <mxGeometry width="50" height="50" relative="1" as="geometry">
            <mxPoint x="100" y="460" as="sourcePoint" />
            <mxPoint x="210" y="390" as="targetPoint" />
          </mxGeometry>
        </mxCell>
        <mxCell id="J87j1mYxE_HHsohZvzXR-42" value="" style="endArrow=classic;startArrow=classic;html=1;rounded=0;exitX=1;exitY=0.5;exitDx=0;exitDy=0;exitPerimeter=0;" edge="1" parent="1" source="J87j1mYxE_HHsohZvzXR-45" target="J87j1mYxE_HHsohZvzXR-47">
          <mxGeometry width="50" height="50" relative="1" as="geometry">
            <mxPoint x="100" y="500" as="sourcePoint" />
            <mxPoint x="200" y="430" as="targetPoint" />
          </mxGeometry>
        </mxCell>
        <mxCell id="J87j1mYxE_HHsohZvzXR-43" value="" style="sketch=0;points=[[0,0,0],[0.25,0,0],[0.5,0,0],[0.75,0,0],[1,0,0],[0,1,0],[0.25,1,0],[0.5,1,0],[0.75,1,0],[1,1,0],[0,0.25,0],[0,0.5,0],[0,0.75,0],[1,0.25,0],[1,0.5,0],[1,0.75,0]];outlineConnect=0;fontColor=#232F3E;gradientColor=#4AB29A;gradientDirection=north;fillColor=#116D5B;strokeColor=#ffffff;dashed=0;verticalLabelPosition=bottom;verticalAlign=top;align=center;html=1;fontSize=12;fontStyle=0;aspect=fixed;shape=mxgraph.aws4.resourceIcon;resIcon=mxgraph.aws4.desktop_and_app_streaming;" vertex="1" parent="1">
          <mxGeometry x="60" y="400" width="38" height="38" as="geometry" />
        </mxCell>
        <mxCell id="J87j1mYxE_HHsohZvzXR-44" value="" style="sketch=0;points=[[0,0,0],[0.25,0,0],[0.5,0,0],[0.75,0,0],[1,0,0],[0,1,0],[0.25,1,0],[0.5,1,0],[0.75,1,0],[1,1,0],[0,0.25,0],[0,0.5,0],[0,0.75,0],[1,0.25,0],[1,0.5,0],[1,0.75,0]];outlineConnect=0;fontColor=#232F3E;gradientColor=#4AB29A;gradientDirection=north;fillColor=#116D5B;strokeColor=#ffffff;dashed=0;verticalLabelPosition=bottom;verticalAlign=top;align=center;html=1;fontSize=12;fontStyle=0;aspect=fixed;shape=mxgraph.aws4.resourceIcon;resIcon=mxgraph.aws4.desktop_and_app_streaming;" vertex="1" parent="1">
          <mxGeometry x="60" y="450" width="38" height="38" as="geometry" />
        </mxCell>
        <mxCell id="J87j1mYxE_HHsohZvzXR-45" value="" style="sketch=0;points=[[0,0,0],[0.25,0,0],[0.5,0,0],[0.75,0,0],[1,0,0],[0,1,0],[0.25,1,0],[0.5,1,0],[0.75,1,0],[1,1,0],[0,0.25,0],[0,0.5,0],[0,0.75,0],[1,0.25,0],[1,0.5,0],[1,0.75,0]];outlineConnect=0;fontColor=#232F3E;gradientColor=#4AB29A;gradientDirection=north;fillColor=#116D5B;strokeColor=#ffffff;dashed=0;verticalLabelPosition=bottom;verticalAlign=top;align=center;html=1;fontSize=12;fontStyle=0;aspect=fixed;shape=mxgraph.aws4.resourceIcon;resIcon=mxgraph.aws4.desktop_and_app_streaming;" vertex="1" parent="1">
          <mxGeometry x="60" y="502" width="38" height="38" as="geometry" />
        </mxCell>
        <mxCell id="J87j1mYxE_HHsohZvzXR-47" value="Multi site Load balancer" style="fontColor=#0066CC;verticalAlign=top;verticalLabelPosition=bottom;labelPosition=center;align=center;html=1;outlineConnect=0;fillColor=#CCCCCC;strokeColor=#6881B3;gradientColor=none;gradientDirection=north;strokeWidth=2;shape=mxgraph.networks.load_balancer;rotation=-90;" vertex="1" parent="1">
          <mxGeometry x="120" y="333.5" width="210" height="30" as="geometry" />
        </mxCell>
        <mxCell id="J87j1mYxE_HHsohZvzXR-60" value="" style="endArrow=classic;startArrow=classic;html=1;rounded=0;" edge="1" parent="1" source="J87j1mYxE_HHsohZvzXR-47">
          <mxGeometry width="50" height="50" relative="1" as="geometry">
            <mxPoint x="243.5" y="319.99606413994167" as="sourcePoint" />
            <mxPoint x="370" y="220" as="targetPoint" />
          </mxGeometry>
        </mxCell>
        <mxCell id="J87j1mYxE_HHsohZvzXR-61" value="" style="endArrow=classic;startArrow=classic;html=1;rounded=0;" edge="1" parent="1" source="J87j1mYxE_HHsohZvzXR-47">
          <mxGeometry width="50" height="50" relative="1" as="geometry">
            <mxPoint x="253.5" y="372.94606413994165" as="sourcePoint" />
            <mxPoint x="370" y="370" as="targetPoint" />
          </mxGeometry>
        </mxCell>
        <mxCell id="J87j1mYxE_HHsohZvzXR-63" value="&lt;span style=&quot;background-color: rgb(248 , 249 , 250)&quot;&gt;Read server for &lt;br&gt;document validation&lt;br&gt;&lt;/span&gt;" style="image;html=1;image=img/lib/clip_art/computers/Server_128x128.png;strokeColor=#344729;fillColor=#527041;" vertex="1" parent="1">
          <mxGeometry x="350" y="530" width="80" height="30" as="geometry" />
        </mxCell>
        <mxCell id="J87j1mYxE_HHsohZvzXR-66" value="" style="endArrow=classic;startArrow=classic;html=1;rounded=0;" edge="1" parent="1" source="J87j1mYxE_HHsohZvzXR-47" target="J87j1mYxE_HHsohZvzXR-63">
          <mxGeometry width="50" height="50" relative="1" as="geometry">
            <mxPoint x="253.5" y="384.58811881188126" as="sourcePoint" />
            <mxPoint x="390" y="439.99" as="targetPoint" />
          </mxGeometry>
        </mxCell>
        <mxCell id="J87j1mYxE_HHsohZvzXR-68" value="Shredded&amp;nbsp;Relational Database&lt;br&gt;to store User Details" style="image;html=1;image=img/lib/clip_art/computers/Database_128x128.png;strokeColor=#344729;fillColor=#527041;" vertex="1" parent="1">
          <mxGeometry x="580" y="312" width="40" height="50" as="geometry" />
        </mxCell>
        <mxCell id="J87j1mYxE_HHsohZvzXR-73" value="Database to store &lt;br&gt;shred information" style="aspect=fixed;perimeter=ellipsePerimeter;html=1;align=center;shadow=0;dashed=0;spacingTop=3;image;image=img/lib/active_directory/database.svg;strokeColor=#344729;fillColor=#527041;" vertex="1" parent="1">
          <mxGeometry x="575" y="190" width="50" height="37" as="geometry" />
        </mxCell>
        <mxCell id="J87j1mYxE_HHsohZvzXR-75" value="" style="endArrow=classic;startArrow=classic;html=1;rounded=0;entryX=0;entryY=0.5;entryDx=0;entryDy=0;" edge="1" parent="1">
          <mxGeometry width="50" height="50" relative="1" as="geometry">
            <mxPoint x="419.20415224913495" y="348" as="sourcePoint" />
            <mxPoint x="585" y="218.5" as="targetPoint" />
          </mxGeometry>
        </mxCell>
        <mxCell id="J87j1mYxE_HHsohZvzXR-88" value="Document Store" style="shape=datastore;whiteSpace=wrap;html=1;strokeColor=#344729;fillColor=#527041;" vertex="1" parent="1">
          <mxGeometry x="570" y="439" width="60" height="51" as="geometry" />
        </mxCell>
        <mxCell id="J87j1mYxE_HHsohZvzXR-90" value="" style="endArrow=classic;startArrow=classic;html=1;rounded=0;" edge="1" parent="1" target="J87j1mYxE_HHsohZvzXR-68">
          <mxGeometry width="50" height="50" relative="1" as="geometry">
            <mxPoint x="415" y="363.5" as="sourcePoint" />
            <mxPoint x="575" y="424.3888888888889" as="targetPoint" />
          </mxGeometry>
        </mxCell>
        <mxCell id="J87j1mYxE_HHsohZvzXR-92" value="" style="endArrow=classic;startArrow=classic;html=1;rounded=0;entryX=0;entryY=0.5;entryDx=0;entryDy=0;exitX=0.625;exitY=0.667;exitDx=0;exitDy=0;exitPerimeter=0;" edge="1" parent="1" source="J87j1mYxE_HHsohZvzXR-63" target="J87j1mYxE_HHsohZvzXR-88">
          <mxGeometry width="50" height="50" relative="1" as="geometry">
            <mxPoint x="420" y="495.56" as="sourcePoint" />
            <mxPoint x="586" y="437.9954838709677" as="targetPoint" />
          </mxGeometry>
        </mxCell>
        <mxCell id="J87j1mYxE_HHsohZvzXR-93" value="Authentication&lt;br&gt;Servers" style="image;html=1;image=img/lib/clip_art/computers/Server_Rack_128x128.png;strokeColor=#344729;fillColor=#527041;verticalAlign=top;" vertex="1" parent="1">
          <mxGeometry x="350" y="168.5" width="80" height="80" as="geometry" />
        </mxCell>
        <mxCell id="J87j1mYxE_HHsohZvzXR-94" value="Application servers&lt;br&gt;for saving, edit user details&lt;br&gt;And to perform&lt;br&gt;Transaction services" style="image;html=1;image=img/lib/clip_art/computers/Server_Rack_128x128.png;strokeColor=#344729;fillColor=#527041;" vertex="1" parent="1">
          <mxGeometry x="350" y="312" width="80" height="80" as="geometry" />
        </mxCell>
        <mxCell id="J87j1mYxE_HHsohZvzXR-102" value="" style="endArrow=classic;startArrow=classic;html=1;rounded=0;exitX=0.625;exitY=0.85;exitDx=0;exitDy=0;exitPerimeter=0;entryX=0;entryY=0.3;entryDx=0;entryDy=0;" edge="1" parent="1" source="J87j1mYxE_HHsohZvzXR-94" target="J87j1mYxE_HHsohZvzXR-88">
          <mxGeometry width="50" height="50" relative="1" as="geometry">
            <mxPoint x="425" y="373.5" as="sourcePoint" />
            <mxPoint x="590" y="349.8648648648649" as="targetPoint" />
          </mxGeometry>
        </mxCell>
        <mxCell id="J87j1mYxE_HHsohZvzXR-103" value="&lt;span style=&quot;background-color: rgb(248 , 249 , 250)&quot;&gt;Sementic AI/Non AI&amp;nbsp;&lt;br&gt;Validation server&lt;br&gt;&lt;/span&gt;" style="image;html=1;image=img/lib/clip_art/computers/Server_128x128.png;strokeColor=#344729;fillColor=#527041;" vertex="1" parent="1">
          <mxGeometry x="350" y="620" width="80" height="30" as="geometry" />
        </mxCell>
        <mxCell id="J87j1mYxE_HHsohZvzXR-104" value="" style="endArrow=classic;startArrow=classic;html=1;rounded=0;entryX=0.15;entryY=0.95;entryDx=0;entryDy=0;exitX=0.625;exitY=0.667;exitDx=0;exitDy=0;exitPerimeter=0;entryPerimeter=0;" edge="1" parent="1" target="J87j1mYxE_HHsohZvzXR-88">
          <mxGeometry width="50" height="50" relative="1" as="geometry">
            <mxPoint x="410" y="627.51" as="sourcePoint" />
            <mxPoint x="580" y="542" as="targetPoint" />
          </mxGeometry>
        </mxCell>
      </root>
    </mxGraphModel>
  </diagram>
</mxfile>
